<svg width="171" height="46" viewBox="0 0 171 46" fill="none" xmlns="http://www.w3.org/2000/svg">
<g clip-path="url(#clip0_265_1517)">
<path d="M108.783 22.0324C108.772 20.6418 108.637 19.2668 108.275 17.9168C107.891 16.475 107.107 15.289 105.972 14.3326C104.502 13.0928 102.799 12.3725 100.889 12.1259C99.3051 11.9225 97.7358 11.9829 96.1797 12.3332C94.8924 12.6231 93.7039 13.1413 92.6313 13.9141C91.7156 14.574 90.9474 15.3769 90.2978 16.2952C90.1687 16.4776 90.0567 16.6757 89.8801 16.8528C89.5244 16.2716 89.1646 15.7272 88.743 15.2247C87.764 14.0597 86.565 13.2043 85.138 12.6677C83.6991 12.1272 82.201 11.9619 80.6752 12.0183C79.5618 12.059 78.4748 12.2557 77.4352 12.669C75.5444 13.4194 74.1042 14.7052 73.004 16.3897C72.9302 16.5025 72.8814 16.6416 72.697 16.7282C72.697 16.6036 72.697 16.5104 72.697 16.4173C72.697 15.2693 72.6983 14.1213 72.697 12.9734C72.697 12.6821 72.6891 12.6782 72.4058 12.6729C72.3623 12.6729 72.3175 12.6729 72.274 12.6729C69.1447 12.6729 66.0153 12.6729 62.8859 12.6729C62.5565 12.6729 62.2271 12.6703 61.8977 12.6729C61.563 12.6756 61.5617 12.6782 61.5591 12.997C61.5591 13.0193 61.5591 13.0403 61.5591 13.0626C61.5591 23.3719 61.5591 33.6813 61.5617 43.9893C61.5617 44.4406 61.4669 44.4419 62.0282 44.4419C65.6516 44.4419 69.2751 44.4419 72.8972 44.4419C72.9855 44.4419 73.0725 44.4432 73.1608 44.4419C73.4572 44.4353 73.4586 44.434 73.4638 44.1533C73.4638 44.1205 73.4638 44.0877 73.4638 44.0549C73.4638 37.6053 73.4638 31.1544 73.4599 24.7049C73.4599 24.1565 73.4889 23.612 73.5995 23.0767C73.7708 22.2541 74.1332 21.5339 74.9079 21.1259C75.7012 20.7087 76.551 20.6811 77.4009 20.9396C78.2139 21.1862 78.6843 21.7845 78.957 22.5546C79.2008 23.2434 79.2495 23.9636 79.2508 24.6852C79.2535 31.1348 79.2522 37.5856 79.2535 44.0352C79.2535 44.4616 79.2087 44.4419 79.6633 44.4419C83.3078 44.4419 86.9537 44.4419 90.5982 44.4419C90.9909 44.4419 90.9909 44.4406 90.9922 44.0457C90.9922 44.0234 90.9922 44.0024 90.9922 43.9801C90.9922 37.869 90.9922 31.7579 90.9935 25.6469C90.9935 24.7547 91.1266 23.8823 91.4376 23.0439C91.7854 22.1006 92.3928 21.4001 93.389 21.1101C94.0096 20.9291 94.646 20.9291 95.2784 21.0721C95.9623 21.2256 96.4353 21.6231 96.6646 22.2909C96.9215 23.0348 96.9755 23.8062 96.9755 24.5855C96.9755 31.0469 96.9755 37.5069 96.9755 43.9683C96.9755 44.4878 96.907 44.4419 97.4499 44.4419C101.084 44.4432 104.718 44.4419 108.352 44.4419C108.866 44.4419 108.804 44.4432 108.803 44.0037C108.789 36.6791 108.833 29.3557 108.78 22.0311L108.783 22.0324Z" fill="#A3A3A3"/>
<path d="M142.409 23.7378C142.005 22.1713 141.414 20.6862 140.568 19.3073C139.514 17.5887 138.153 16.1468 136.513 14.97C134.274 13.3602 131.746 12.4878 129.024 12.1598C127.397 11.963 125.764 11.963 124.129 12.127C122.847 12.2556 121.591 12.5088 120.371 12.9102C117.861 13.7368 115.716 15.1392 113.939 17.0849C112.863 18.2617 111.961 19.5618 111.253 20.9932C110.211 23.1002 109.677 25.337 109.534 27.6723C109.455 28.9515 109.5 30.2254 109.673 31.4967C109.854 32.8126 110.187 34.0838 110.687 35.3145C111.265 36.7445 112.069 38.0394 113.048 39.2319C114.041 40.4416 115.182 41.4885 116.487 42.3557C118.054 43.3961 119.772 44.0888 121.597 44.5414C122.686 44.8117 123.796 44.9665 124.905 45.0649C126.236 45.183 127.576 45.1961 128.911 45.0255C130.074 44.8773 131.239 44.7461 132.379 44.4443C133.775 44.0757 135.109 43.5666 136.354 42.8306C138.126 41.7824 139.578 40.3812 140.813 38.7583C141.871 37.3677 142.567 35.792 142.971 34.093C143.052 33.7532 143.025 33.727 142.664 33.7257C142.654 33.7257 142.642 33.7257 142.631 33.7257C139.03 33.7257 135.429 33.7257 131.828 33.7257C131.762 33.7257 131.695 33.7322 131.63 33.7231C131.497 33.7047 131.431 33.7716 131.387 33.8857C131.304 34.0996 131.225 34.3147 131.128 34.5233C130.734 35.3787 130.13 36.0308 129.252 36.4099C128.054 36.9268 126.807 36.9426 125.546 36.7484C125.013 36.6658 124.507 36.4795 124.053 36.1764C123.432 35.7618 123.072 35.1557 122.825 34.4761C122.466 33.4908 122.32 32.4675 122.295 31.4232C122.286 31.0231 122.288 31.0217 122.682 31.0217C125.998 31.0217 129.313 31.0217 132.629 31.0217C135.934 31.0217 139.238 31.0217 142.543 31.0217C142.619 31.0217 142.697 31.0217 142.774 31.0244C142.92 31.0322 143.003 30.9706 143.011 30.8197C143.015 30.7541 143.028 30.6898 143.028 30.6242C143.028 29.7085 143.063 28.794 143.004 27.8757C142.913 26.4771 142.758 25.0943 142.409 23.7325V23.7378ZM130.488 24.79C129.172 24.79 127.855 24.79 126.539 24.79C125.245 24.79 123.95 24.79 122.656 24.79C122.59 24.79 122.524 24.786 122.458 24.79C122.319 24.7978 122.249 24.7309 122.258 24.5971C122.325 23.5948 122.404 22.5977 122.808 21.6544C123.32 20.454 124.215 19.7337 125.489 19.4739C126.413 19.2863 127.32 19.3427 128.208 19.6694C129.33 20.0827 130.095 20.841 130.439 21.9889C130.682 22.7984 130.774 23.6341 130.796 24.4764C130.804 24.7847 130.794 24.7873 130.489 24.7873L130.488 24.79Z" fill="#A3A3A3"/>
<path d="M170.279 44.2201C170.273 44.1664 170.279 44.1113 170.279 44.0561C170.279 36.8522 170.279 29.6483 170.279 22.4457C170.279 15.5815 170.279 8.71606 170.279 1.85192C170.279 1.45833 170.281 1.06475 170.279 0.671162C170.276 0.423203 170.272 0.421891 170.018 0.420579C166.318 0.420579 162.618 0.420579 158.918 0.424515C158.735 0.424515 158.512 0.343174 158.374 0.467809C158.218 0.606876 158.315 0.840404 158.315 1.03064C158.311 15.3611 158.311 29.6916 158.309 44.0233C158.309 44.2989 158.445 44.4366 158.718 44.4366C162.44 44.4366 166.161 44.4366 169.883 44.4366C169.939 44.4366 169.994 44.4314 170.048 44.4366C170.214 44.4576 170.298 44.3973 170.28 44.2215L170.279 44.2201Z" fill="#A3A3A3"/>
<path d="M155.95 28.5437C155.95 23.3838 155.95 18.2252 155.95 13.0653C155.95 12.6744 155.949 12.673 155.55 12.673C151.74 12.673 147.931 12.673 144.122 12.673C144.056 12.673 143.99 12.6757 143.924 12.673C143.802 12.6691 143.74 12.7255 143.741 12.8488C143.741 12.9144 143.741 12.98 143.741 13.0456C143.741 23.3746 143.741 33.705 143.741 44.034C143.741 44.4315 143.678 44.442 144.152 44.442C147.939 44.442 151.727 44.442 155.514 44.442C155.58 44.442 155.646 44.4446 155.712 44.4407C155.93 44.4276 155.942 44.4144 155.95 44.1849C155.953 44.0969 155.95 44.0104 155.95 43.9225C155.95 38.7953 155.95 33.6695 155.95 28.5424V28.5437Z" fill="#A3A3A3"/>
<path d="M143.9 10.3743C143.989 10.3743 144.076 10.3743 144.164 10.3743C146.052 10.3743 147.94 10.3743 149.828 10.3743C151.716 10.3743 153.671 10.3743 155.592 10.3743C155.947 10.3743 155.949 10.3717 155.949 10.0135C155.949 6.94221 155.949 3.86961 155.949 0.798328C155.949 0.470339 155.949 0.466403 155.621 0.466403C151.767 0.466403 147.914 0.465091 144.06 0.466403C143.74 0.466403 143.738 0.470339 143.738 0.800951C143.738 3.88404 143.738 6.96582 143.738 10.0489C143.738 10.104 143.738 10.1578 143.738 10.2129C143.738 10.3179 143.79 10.3743 143.899 10.373L143.9 10.3743Z" fill="#A3A3A3"/>
<path d="M46.2185 32.7842C43.3526 32.7842 40.4868 32.7842 37.6223 32.7842C37.447 32.7842 37.2705 32.7764 37.0952 32.7816C36.9384 32.7869 36.8752 32.716 36.8831 32.5651C36.8857 32.51 36.8831 32.4562 36.8831 32.4011C36.8831 25.3061 36.8831 18.2111 36.8831 11.116C36.8831 11.0399 36.8831 10.9625 36.8831 10.8864C36.8831 10.7815 36.8304 10.7224 36.7276 10.7119C36.6512 10.7041 36.5748 10.7041 36.497 10.7041C33.6431 10.7041 30.7878 10.708 27.9338 10.6988C27.6558 10.6988 27.4621 10.7854 27.2763 10.9848C26.2156 12.121 25.1444 13.2479 24.0771 14.3788C22.6198 15.9243 21.1651 17.4698 19.7079 19.0153C19.5879 19.1425 19.4615 19.2646 19.3416 19.3918C19.2678 19.4705 19.1992 19.4823 19.1228 19.3944C19.0807 19.3446 19.0293 19.3013 18.9845 19.2541C17.9831 18.1822 16.983 17.109 15.979 16.0385C14.3701 14.3198 12.7547 12.6077 11.1538 10.8825C10.9325 10.6437 10.7072 10.5479 10.387 10.5519C9.15762 10.5663 7.92828 10.5584 6.69762 10.5584C4.71064 10.5584 2.72366 10.5584 0.735363 10.5584C0.374333 10.5584 0.371698 10.5624 0.375651 10.9258C0.382239 11.4611 0.396733 11.9963 0.400686 12.5316C0.41518 14.4772 0.424403 16.4229 0.437579 18.3685C0.456026 21.0685 0.477108 23.7685 0.495555 26.4685C0.516637 29.7589 0.536401 33.0492 0.554848 36.3383C0.570659 39.0711 0.585153 41.8039 0.6036 44.5367C0.607553 45.1822 0.49819 45.1179 1.17545 45.1192C4.48005 45.1218 7.78466 45.1179 11.0893 45.1166C13.154 45.1166 15.2174 45.1179 17.2808 45.1192C17.5456 45.1192 17.5588 45.1087 17.5601 44.8424C17.5628 44.3937 17.5601 43.9463 17.5575 43.4976C17.5575 43.1474 17.5601 42.7984 17.5549 42.4481C17.5522 42.2211 17.5404 42.2146 17.3085 42.2067C17.2755 42.2067 17.2426 42.208 17.2096 42.208C15.1897 42.208 13.1698 42.208 11.1486 42.208C11.0497 42.208 10.9509 42.2027 10.8521 42.2041C10.7256 42.2067 10.6795 42.1463 10.6808 42.0243C10.6848 41.5218 10.6834 41.0181 10.6808 40.5156C10.6808 40.3909 10.7335 40.3358 10.8574 40.3398C10.9338 40.3424 11.0115 40.3398 11.0879 40.3398C12.0103 40.3398 12.9326 40.3424 13.855 40.3398C14.1382 40.3398 14.1527 40.324 14.1541 40.042C14.158 39.5605 14.1541 39.0803 14.1541 38.5988C14.1541 38.2708 14.1501 37.9428 14.1567 37.6148C14.1593 37.4469 14.0855 37.3748 13.9195 37.3826C13.8312 37.3866 13.7443 37.3826 13.656 37.3826C12.789 37.3826 11.9207 37.3826 11.0537 37.3826C10.9878 37.3826 10.9219 37.3826 10.856 37.3826C10.7335 37.3813 10.6795 37.3197 10.6795 37.1976C10.6821 36.749 10.6834 36.3016 10.6795 35.8529C10.6795 35.7283 10.7309 35.6732 10.8547 35.6771C10.9535 35.6797 11.0524 35.6745 11.1512 35.6745C13.0723 35.6745 14.9934 35.6745 16.9158 35.6745C16.9922 35.6745 17.07 35.6771 17.1464 35.6745C17.373 35.6653 17.402 35.6482 17.4033 35.4344C17.4086 34.6249 17.4033 33.8167 17.4073 33.0073C17.4073 32.8367 17.3269 32.7711 17.1648 32.7803C17.099 32.7842 17.0331 32.7829 16.9672 32.7829C14.1132 32.7829 11.2579 32.7869 8.40394 32.7829C7.79915 32.7829 7.87426 32.8564 7.87294 32.2621C7.86767 27.8342 7.86767 23.4077 7.86767 18.9799C7.86767 18.8683 7.84659 18.749 7.92037 18.6204C8.04818 18.7424 8.16018 18.8447 8.26954 18.951C9.93898 20.5791 11.6097 22.2086 13.2778 23.838C14.7193 25.2458 16.1608 26.6535 17.6023 28.0612C18.0964 28.5427 18.5879 29.0255 19.0833 29.507C19.2875 29.7064 19.3112 29.7038 19.497 29.4991C19.7039 29.2721 19.9081 29.0452 20.1163 28.8195C21.5907 27.2163 23.0678 25.6144 24.5396 24.0086C26.1458 22.2571 27.7467 20.503 29.3516 18.7516C29.4293 18.6663 29.4965 18.5587 29.6348 18.5325C29.6823 18.6729 29.6625 18.8159 29.6625 18.9562C29.6625 27.396 29.6625 35.8358 29.6625 44.2743C29.6625 44.5577 29.8074 44.6998 30.0973 44.7007C32.8314 44.7007 35.5655 44.7033 38.2982 44.7033C40.9005 44.7033 43.5028 44.7033 46.1038 44.7033C46.482 44.7033 46.4833 44.702 46.4846 44.3202C46.4846 43.7299 46.4873 43.1395 46.4846 42.5491C46.4833 42.2198 46.4794 42.2198 46.1565 42.2132C46.0907 42.2119 46.0248 42.2132 45.9589 42.2132C44.4212 42.2132 42.8849 42.2132 41.3472 42.2146C41.0507 42.2146 40.7543 42.2198 40.4578 42.2159C40.2127 42.2132 40.2048 42.2027 40.2022 41.9495C40.1996 41.4904 40.2009 41.0312 40.2009 40.572C40.2009 40.2807 40.2009 40.2781 40.4881 40.2781C41.367 40.2768 42.2445 40.2781 43.1234 40.2781C43.4488 40.2781 43.458 40.2702 43.4607 39.9488C43.4646 39.2495 43.466 38.549 43.462 37.8497C43.4594 37.2764 43.5252 37.317 42.935 37.317C42.122 37.317 41.3103 37.321 40.4973 37.317C40.2061 37.317 40.2048 37.3092 40.2035 37.0218C40.2022 36.6716 40.2009 36.3226 40.2035 35.9723C40.2048 35.681 40.2088 35.6797 40.4947 35.6758C40.5382 35.6758 40.583 35.6784 40.6265 35.6784C42.4935 35.6784 44.3593 35.6784 46.2264 35.6784C46.5334 35.6784 46.5373 35.6758 46.5387 35.3675C46.5413 34.6131 46.5413 33.8587 46.5387 33.1044C46.5387 32.7829 46.5334 32.7842 46.2066 32.7842H46.2185Z" fill="#A3A3A3"/>
<path d="M46.8489 8.2438C46.8489 6.93972 46.5867 5.68287 46.0833 4.47981C45.244 2.47383 43.7986 1.12121 41.6943 0.498029C40.8141 0.238262 39.9063 0.154297 38.9932 0.154297C37.0286 0.154297 35.0627 0.163481 33.0981 0.164793C28.7842 0.166104 24.469 0.164793 20.1551 0.164793V0.18972C18.4646 0.18972 16.7741 0.187096 15.0836 0.18972C12.4048 0.193655 9.72609 0.201527 7.04867 0.205463C5.00635 0.208087 2.96535 0.205463 0.923032 0.206775C0.791269 0.206775 0.659507 0.209399 0.527744 0.219895C0.291889 0.240886 0.289254 0.24351 0.283983 0.47179C0.280031 0.668583 0.283983 0.865376 0.283983 1.06217C0.283983 3.13899 0.283983 5.21581 0.283983 7.29263C0.283983 7.61931 0.290572 7.61931 0.610754 7.62325C0.676636 7.62325 0.742517 7.62325 0.808398 7.62325C3.62943 7.62325 6.45047 7.62325 9.27282 7.62325C18.4949 7.62325 27.7156 7.62456 36.9377 7.62587C37.6558 7.62587 38.2698 7.88433 38.7665 8.39336C39.2962 8.93782 39.5242 9.61086 39.5255 10.3613C39.5281 12.9078 39.5268 15.4556 39.5268 18.0021C39.5268 21.3909 39.5268 24.7797 39.5268 28.1671C39.5268 28.5358 39.5268 28.5384 39.876 28.5384C42.1041 28.5384 44.3335 28.5384 46.5616 28.5384C46.8515 28.5384 46.8515 28.5358 46.8515 28.2472C46.8515 21.5798 46.8528 14.9125 46.8515 8.2438H46.8489Z" fill="#A3A3A3"/>
<path d="M23.3845 32.4825C20.4264 32.4943 18.0613 34.8742 18.0547 37.8169C18.0494 40.7648 20.5055 43.1644 23.399 43.1198C26.1568 43.1814 28.7393 40.8947 28.7446 37.8169C28.7499 34.8584 26.3281 32.4707 23.3845 32.4825ZM25.9565 34.3953C26.4361 34.394 26.8643 34.8112 26.867 35.2861C26.8709 35.761 26.4546 36.1822 25.9723 36.194C25.4993 36.2045 25.0684 35.7807 25.0684 35.3019C25.0684 34.8151 25.4769 34.3979 25.9565 34.3953ZM23.3884 33.3274C23.8707 33.3169 24.2857 33.7249 24.2937 34.2169C24.3002 34.7075 23.8984 35.1195 23.4082 35.1247C22.9365 35.13 22.503 34.7075 22.4951 34.2352C22.4872 33.7656 22.9088 33.3365 23.3884 33.3261V33.3274ZM20.57 34.5855C21.0523 34.5855 21.4449 34.9712 21.4555 35.454C21.4673 35.9486 21.0721 36.3593 20.5819 36.3645C20.0812 36.3698 19.6688 35.9841 19.6569 35.5C19.6451 35.0027 20.0614 34.5842 20.57 34.5855ZM19.5686 38.9268C19.0798 38.9215 18.6713 38.5096 18.6753 38.0281C18.6806 37.5414 19.093 37.1412 19.5818 37.1465C20.0759 37.1517 20.4791 37.5571 20.4752 38.0412C20.4712 38.5279 20.0575 38.932 19.5686 38.9268ZM20.6544 41.6123C20.209 41.5953 19.8019 41.1742 19.8058 40.7347C19.8098 40.3148 20.1853 39.7953 20.769 39.8333C21.2381 39.8635 21.6228 40.2715 21.6083 40.7478C21.5938 41.2594 21.1827 41.6333 20.6544 41.6137V41.6123ZM23.2633 42.6527C22.7678 42.6449 22.3805 42.2408 22.391 41.7409C22.4002 41.2503 22.814 40.8606 23.3107 40.875C23.8088 40.8895 24.1975 41.2949 24.1843 41.7881C24.1711 42.2841 23.7706 42.6606 23.2633 42.6527ZM23.3318 39.9986C22.1815 39.996 21.2381 39.0488 21.2499 37.9074C21.2618 36.7647 22.2158 35.824 23.3555 35.8306C24.4926 35.8371 25.4426 36.7949 25.44 37.9297C25.4374 39.0658 24.4847 40 23.3318 39.9973V39.9986ZM26.0474 41.447C25.5428 41.4313 25.1514 41.0075 25.1725 40.4972C25.191 40.0301 25.6113 39.6379 26.0804 39.6497C26.585 39.6615 26.9777 40.0852 26.9566 40.5943C26.9381 41.0548 26.5059 41.4602 26.0474 41.4457V41.447ZM27.9711 37.994C27.9764 38.4702 27.5587 38.8874 27.0725 38.8927C26.5929 38.8979 26.1686 38.4768 26.1713 37.9966C26.1726 37.5138 26.589 37.0992 27.0712 37.0992C27.5561 37.0992 27.9659 37.5059 27.9711 37.994Z" fill="#A3A3A3"/>
</g>
<defs>
<clipPath id="clip0_265_1517">
<rect width="170" height="45" fill="white" transform="translate(0.28125 0.154297)"/>
</clipPath>
</defs>
</svg>
