<svg width="170" height="40" viewBox="0 0 170 40" fill="none" xmlns="http://www.w3.org/2000/svg">
<path fill-rule="evenodd" clip-rule="evenodd" d="M0 39.3428L11.4595 31.119L17.258 13.1143L20.1354 17.8892L15.0203 33.9116L9.23863 38.0403L0 39.3428ZM26.989 13.1143L32.7874 31.119L44.2 39.3127L34.9714 38.0135L29.2266 33.9116L24.1249 17.8858L26.989 13.1143Z" fill="#F9C300"/>
<path fill-rule="evenodd" clip-rule="evenodd" d="M22.105 0L26.2131 10.9623L22.0983 17.7338L17.9903 10.9689L22.105 0ZM23.206 19.2307L28.0725 34.2207L32.5429 37.4003L25.2969 36.3759L22.179 27.1265L18.9033 36.3759L11.6572 37.4003L16.1277 34.2207L21.011 19.1875L22.1219 21.0234L23.206 19.2307Z" fill="white"/>
<path fill-rule="evenodd" clip-rule="evenodd" d="M127.246 26.6713C127.095 26.6713 126.975 26.7212 126.881 26.8242C126.787 26.9273 126.743 27.0802 126.743 27.283V28.7127H124.544V27.283C124.544 27.0769 124.497 26.924 124.403 26.8209C124.309 26.7212 124.185 26.668 124.031 26.668C123.876 26.668 123.752 26.7178 123.662 26.8209C123.571 26.924 123.528 27.0769 123.528 27.2797V31.2096C123.528 31.4124 123.575 31.5687 123.665 31.6717C123.756 31.7748 123.88 31.828 124.034 31.828C124.188 31.828 124.309 31.7781 124.406 31.6751C124.503 31.572 124.55 31.4191 124.55 31.2129V29.5339H126.75V31.2129C126.75 31.4157 126.797 31.572 126.888 31.6751C126.978 31.7781 127.102 31.8313 127.256 31.8313C127.411 31.8313 127.531 31.7814 127.629 31.6784C127.726 31.5753 127.773 31.4224 127.773 31.2162V27.2864C127.773 27.0802 127.726 26.9273 127.632 26.8242C127.538 26.7245 127.414 26.6713 127.26 26.6713H127.246ZM111.46 27.6155C111.399 27.456 111.345 27.3263 111.305 27.2299C111.265 27.1334 111.215 27.0437 111.158 26.9606C111.101 26.8774 111.024 26.8076 110.926 26.7544C110.832 26.7012 110.712 26.6746 110.571 26.6746C110.43 26.6746 110.313 26.7012 110.219 26.7544C110.125 26.8076 110.048 26.8774 109.987 26.9639C109.927 27.0503 109.873 27.1567 109.823 27.2897C109.805 27.3378 109.786 27.3836 109.769 27.4269L109.769 27.4273L109.769 27.4275L109.769 27.4276C109.74 27.5009 109.713 27.5671 109.692 27.6255L108.405 30.8639C108.351 30.9935 108.314 31.0933 108.291 31.1664C108.267 31.2395 108.257 31.3094 108.257 31.3759C108.257 31.4922 108.308 31.5986 108.405 31.6917C108.502 31.7848 108.616 31.8314 108.743 31.8314C108.894 31.8314 109.002 31.7881 109.069 31.7017C109.136 31.6152 109.216 31.4457 109.31 31.1963L109.552 30.558H111.597L111.838 31.183C111.855 31.2197 111.871 31.2595 111.889 31.302C111.909 31.348 111.93 31.3971 111.952 31.449C111.996 31.5487 112.04 31.6252 112.076 31.6751C112.117 31.725 112.164 31.7615 112.221 31.7915C112.278 31.8214 112.348 31.8347 112.425 31.8347C112.563 31.8347 112.68 31.7848 112.777 31.6884C112.875 31.592 112.925 31.4856 112.925 31.3692C112.925 31.2528 112.875 31.08 112.771 30.8339L111.456 27.6155H111.46ZM109.823 29.7966L110.568 27.7386L111.325 29.7966H109.823ZM105.082 26.8708C104.968 26.7944 104.814 26.7578 104.619 26.7578H104.304C104.113 26.7578 103.975 26.7744 103.892 26.8077C103.808 26.8409 103.741 26.9041 103.7 26.9905C103.66 27.077 103.613 27.2232 103.56 27.4227L102.829 30.1557L102.098 27.4227C102.044 27.2232 101.997 27.0803 101.957 26.9905C101.917 26.9008 101.853 26.8409 101.766 26.8077C101.678 26.7744 101.541 26.7578 101.353 26.7578H101.038C100.844 26.7578 100.689 26.7944 100.575 26.8708C100.461 26.9473 100.404 27.0936 100.404 27.313V31.2595C100.404 31.4524 100.448 31.5953 100.535 31.6884C100.622 31.7815 100.733 31.8281 100.87 31.8281C101.008 31.8281 101.125 31.7815 101.212 31.6851C101.3 31.5887 101.34 31.4457 101.34 31.2562V27.8117L102.145 30.9902L102.145 30.9904C102.171 31.0934 102.198 31.1964 102.225 31.2928C102.252 31.3892 102.289 31.4756 102.332 31.5554C102.379 31.6352 102.443 31.7017 102.523 31.7516C102.607 31.8015 102.708 31.8281 102.825 31.8281C102.983 31.8281 103.107 31.7882 103.197 31.7084C103.288 31.6286 103.348 31.5421 103.382 31.4457C103.415 31.3493 103.459 31.1964 103.509 30.9902L104.314 27.8117V31.2562C104.314 31.4457 104.358 31.5887 104.445 31.6851C104.532 31.7815 104.643 31.8281 104.777 31.8281C104.921 31.8281 105.035 31.7815 105.122 31.6851C105.209 31.5887 105.25 31.4457 105.25 31.2562V27.3097C105.25 27.0903 105.193 26.944 105.079 26.8675L105.082 26.8708ZM119.531 29.8531C119.595 29.77 119.699 29.7301 119.839 29.7301L119.836 29.7334C119.957 29.7334 120.061 29.7766 120.148 29.8598C120.235 29.9429 120.279 30.046 120.279 30.1723C120.279 30.3319 120.242 30.5014 120.161 30.6876C120.081 30.8738 119.957 31.0534 119.789 31.2329C119.621 31.4091 119.403 31.5554 119.142 31.6651C118.88 31.7748 118.572 31.8314 118.223 31.8314C117.958 31.8314 117.717 31.8048 117.499 31.7549C117.281 31.705 117.083 31.6285 116.905 31.5222C116.728 31.4191 116.563 31.2794 116.416 31.1066C116.285 30.9503 116.171 30.7741 116.077 30.5812C115.983 30.3851 115.913 30.1789 115.866 29.9595C115.819 29.7401 115.795 29.504 115.795 29.258C115.795 28.859 115.856 28.4999 115.973 28.1808C116.091 27.8649 116.258 27.5923 116.479 27.3662C116.697 27.1401 116.956 26.9672 117.251 26.8509C117.546 26.7345 117.858 26.6746 118.193 26.6746C118.599 26.6746 118.961 26.7578 119.279 26.9174C119.598 27.0803 119.843 27.2798 120.01 27.5158C120.181 27.7519 120.265 27.9779 120.265 28.1874C120.265 28.3038 120.225 28.4035 120.141 28.4933C120.057 28.5831 119.96 28.6263 119.843 28.6263C119.715 28.6263 119.615 28.593 119.551 28.5332C119.487 28.4733 119.413 28.3669 119.333 28.2173C119.199 27.968 119.045 27.7851 118.864 27.6621C118.683 27.5391 118.461 27.4792 118.2 27.4792C117.781 27.4792 117.449 27.6355 117.2 27.9514C116.952 28.2672 116.828 28.7127 116.828 29.2946C116.828 29.6836 116.882 30.0061 116.993 30.2621C117.103 30.5181 117.257 30.7109 117.459 30.8372C117.66 30.9636 117.898 31.0268 118.166 31.0268C118.461 31.0268 118.709 30.9536 118.911 30.8106C119.115 30.6677 119.266 30.4549 119.37 30.1756C119.414 30.0426 119.467 29.9362 119.531 29.8531ZM131.357 26.8239C131.451 26.7208 131.572 26.6709 131.719 26.6709C131.874 26.6709 131.998 26.7241 132.091 26.8239C132.185 26.9269 132.232 27.0799 132.232 27.286V31.2159C132.232 31.422 132.185 31.5749 132.091 31.678C131.998 31.7811 131.867 31.831 131.719 31.831C131.572 31.831 131.451 31.7778 131.357 31.6747C131.263 31.5716 131.216 31.4154 131.216 31.2126V27.2827C131.216 27.0799 131.263 26.9269 131.357 26.8239ZM139.445 26.6713C139.304 26.6713 139.19 26.7178 139.106 26.8176C139.023 26.914 138.982 27.057 138.982 27.2498V30.2155L137.024 27.2764C136.97 27.1899 136.917 27.1068 136.863 27.027C136.813 26.9472 136.762 26.8841 136.712 26.8342C136.662 26.7843 136.605 26.7444 136.541 26.7145C136.477 26.6846 136.397 26.6713 136.306 26.6713C136.189 26.6713 136.082 26.7045 135.981 26.7677C135.881 26.8309 135.807 26.9173 135.767 27.0171C135.73 27.1102 135.713 27.2398 135.713 27.4027V31.2495C135.713 31.439 135.757 31.582 135.844 31.6784C135.931 31.7781 136.045 31.828 136.189 31.828C136.333 31.828 136.444 31.7781 136.531 31.6817C136.622 31.5853 136.665 31.439 136.665 31.2495V28.327L138.577 31.2329C138.61 31.2832 138.646 31.3323 138.68 31.3808C138.701 31.4092 138.721 31.4374 138.741 31.4656C138.795 31.5421 138.855 31.6086 138.919 31.6651C138.982 31.7216 139.053 31.7648 139.123 31.7881C139.197 31.8147 139.277 31.828 139.371 31.828C139.737 31.828 139.921 31.6086 139.921 31.1697V27.2465C139.921 27.0536 139.878 26.9107 139.794 26.8142C139.71 26.7178 139.593 26.668 139.448 26.668L139.445 26.6713ZM144.371 30.9437H146.745L146.752 30.9536C146.913 30.9536 147.033 30.9869 147.114 31.0634C147.194 31.1398 147.235 31.2429 147.235 31.3593C147.235 31.4756 147.194 31.572 147.114 31.6452C147.033 31.7183 146.913 31.7549 146.752 31.7549H143.982C143.761 31.7549 143.6 31.705 143.502 31.6086C143.402 31.5122 143.355 31.3559 143.355 31.1365V27.3862C143.355 27.2399 143.375 27.1235 143.419 27.0304C143.462 26.9406 143.529 26.8742 143.623 26.8309C143.717 26.7877 143.834 26.7678 143.979 26.7678H146.668C146.829 26.7678 146.95 26.801 147.03 26.8742C147.107 26.944 147.147 27.0371 147.147 27.1534C147.147 27.2698 147.11 27.3662 147.03 27.436C146.95 27.5059 146.829 27.5424 146.668 27.5424H144.371V28.766H146.483C146.641 28.766 146.755 28.7992 146.832 28.869C146.909 28.9355 146.946 29.0286 146.946 29.1416C146.946 29.2547 146.909 29.3478 146.832 29.4176C146.758 29.4874 146.641 29.524 146.483 29.524H144.371V30.9437ZM154.129 30.5081C153.998 30.2987 153.854 30.0992 153.686 29.913C153.522 29.7268 153.347 29.5872 153.166 29.4908C153.596 29.3977 153.917 29.2414 154.129 29.0186C154.34 28.7959 154.447 28.5 154.447 28.1276C154.447 27.9447 154.417 27.7752 154.353 27.6122C154.29 27.4493 154.199 27.3064 154.078 27.1867C153.958 27.0637 153.817 26.9706 153.659 26.9041C153.528 26.8442 153.381 26.8043 153.22 26.7877C153.059 26.7678 152.861 26.7578 152.633 26.7578H150.977C150.755 26.7578 150.598 26.8077 150.501 26.9041C150.403 27.0005 150.353 27.1601 150.353 27.3762V31.213C150.353 31.4158 150.397 31.5687 150.487 31.6718C150.578 31.7749 150.702 31.8281 150.866 31.8281C151.017 31.8281 151.141 31.7782 151.235 31.6784C151.329 31.5787 151.376 31.4224 151.376 31.213V29.6104H151.731C151.912 29.6104 152.063 29.6337 152.181 29.6803C152.298 29.7268 152.415 29.8166 152.533 29.9462C152.647 30.0759 152.777 30.2654 152.925 30.5115L153.334 31.1864C153.431 31.346 153.505 31.4657 153.562 31.5455C153.619 31.6286 153.686 31.6951 153.763 31.7483C153.84 31.8015 153.938 31.8281 154.052 31.8281C154.149 31.8281 154.233 31.8081 154.306 31.7715C154.38 31.735 154.437 31.6818 154.481 31.6186C154.524 31.5554 154.544 31.4889 154.544 31.4224C154.544 31.3559 154.508 31.2429 154.437 31.0733C154.367 30.9038 154.263 30.7143 154.135 30.5048L154.129 30.5081ZM152.901 28.8225C152.734 28.8657 152.529 28.8856 152.284 28.8856H151.372V27.5158H152.311C152.66 27.5158 152.895 27.5391 153.015 27.5923C153.143 27.6455 153.24 27.722 153.311 27.8284C153.381 27.9348 153.418 28.0544 153.418 28.1941C153.418 28.3703 153.374 28.5099 153.287 28.6097C153.2 28.7094 153.072 28.7826 152.905 28.8225H152.901ZM160.973 26.6746C161.103 26.6746 161.207 26.7145 161.294 26.7976L161.301 26.8043C161.385 26.8841 161.429 26.9805 161.429 27.0902C161.429 27.18 161.408 27.2664 161.365 27.3562C161.321 27.446 161.244 27.569 161.14 27.7253L159.879 29.6403V31.2229C159.879 31.429 159.832 31.582 159.735 31.6851C159.638 31.7881 159.521 31.838 159.366 31.838C159.212 31.838 159.091 31.7848 158.998 31.6851C158.904 31.582 158.857 31.429 158.857 31.2196V29.637L157.629 27.7485C157.522 27.579 157.445 27.446 157.401 27.3496C157.358 27.2532 157.334 27.17 157.334 27.1002C157.334 26.9838 157.378 26.8841 157.469 26.801C157.559 26.7179 157.663 26.6746 157.804 26.6746C157.945 26.6746 158.052 26.7112 158.122 26.791C158.196 26.8708 158.303 27.0271 158.448 27.2598L159.387 28.7726L160.335 27.2598C160.357 27.2246 160.377 27.1913 160.396 27.1601C160.427 27.1087 160.455 27.063 160.48 27.0237C160.517 26.9606 160.56 26.9007 160.607 26.8442C160.654 26.791 160.708 26.7478 160.765 26.7179C160.822 26.6879 160.889 26.6746 160.973 26.6746Z" fill="white"/>
<path fill-rule="evenodd" clip-rule="evenodd" d="M124.809 6.07462H116.698L114.089 20.7468H116.983L119.065 8.96384H124.219C124.833 8.96384 125.228 9.44259 125.118 10.051L124.722 12.3551C124.611 12.9635 124.041 13.4423 123.428 13.4423H120.292L118.891 16.3348H121.456L123.253 20.7468H126.606L124.655 15.9857C126.124 15.3773 127.307 14.0308 127.616 12.4848V12.4183L128.055 9.98452V9.91805C128.407 7.78687 126.958 6.07129 124.809 6.07129V6.07462ZM77.6701 8.96676L78.1966 6.07423H89.5973L89.0709 8.96676H84.8157L82.7334 20.7497H79.8396L81.6604 10.3997L83.3705 8.96676H77.6701ZM59.7777 6.07521H55.6131C53.4436 6.07521 51.3378 7.83732 50.9656 9.98844L49.0576 20.7474H51.9514L53.8359 10.0516C53.9465 9.44318 54.5367 8.96443 55.1302 8.96443H59.1875C59.8012 8.96443 60.1968 9.44318 60.0862 10.0516L59.4927 13.4429H55.2174L53.8158 16.3354H58.9696L58.2017 20.7474H61.119L63.0269 9.98844C63.3991 7.83732 61.9539 6.07521 59.781 6.07521H59.7777ZM71.9462 16.7937C71.8356 17.3822 71.2656 17.8809 70.6519 17.8809H67.6911C67.0976 17.8809 66.6818 17.3822 66.7924 16.7937L68.7004 6.07796H65.8066L63.8785 16.8369C63.5063 18.988 64.975 20.7502 67.1445 20.7502H70.2127C72.3822 20.7502 74.4645 18.988 74.84 16.8369L76.7681 6.07796H73.8508L71.9429 16.7937H71.9462ZM98.8047 6.07423H95.076C92.9065 6.07423 90.8007 7.83634 90.4285 9.98747L89.2012 16.8365C88.829 18.9876 90.2977 20.7497 92.4672 20.7497H96.1959C98.3654 20.7497 100.448 18.9876 100.823 16.8365L102.051 9.98747C102.423 7.83634 100.978 6.07423 98.8047 6.07423ZM99.1132 10.0506L97.9295 16.7899C97.8189 17.3784 97.2488 17.8771 96.6352 17.8771H93.0171C92.4236 17.8771 92.0078 17.3784 92.1185 16.7899L93.3022 10.0506C93.4128 9.4422 94.003 8.96345 94.5965 8.96345H98.2145C98.8282 8.96345 99.2238 9.4422 99.1132 10.0506ZM108.298 8.96676C107.705 8.96676 107.115 9.44553 107.004 10.054L105.82 16.7933C105.71 17.3818 106.125 17.8805 106.719 17.8805H112.835L112.332 20.7497H106.172C104.003 20.7497 102.534 18.9876 102.906 16.8365L104.134 9.98747C104.506 7.83634 106.612 6.07423 108.781 6.07423H114.941L113.539 8.96676H108.298ZM134.915 6.07423H139.08C141.253 6.07423 142.698 7.83634 142.326 9.98747L140.418 20.7464H137.5L138.268 16.3345H133.118L134.52 13.4419H138.795L139.388 10.0506C139.499 9.4422 139.103 8.96345 138.49 8.96345H134.432C133.839 8.96345 133.249 9.4422 133.138 10.0506L131.254 20.7464H128.36L130.268 9.98747C130.64 7.83634 132.746 6.07423 134.915 6.07423ZM144.408 9.98747L143.181 16.8365C142.809 18.9876 144.277 20.7497 146.447 20.7497H152.607L153.11 17.8805H146.993C146.4 17.8805 145.984 17.3818 146.095 16.7933L147.278 10.054C147.389 9.44553 147.979 8.96676 148.573 8.96676H153.814L155.215 6.07423H149.056C146.886 6.07423 144.78 7.83634 144.408 9.98747ZM161.707 10.8153L165.785 6.07423H169.272L162.629 13.8575L161.422 20.7497H158.505L159.886 12.9665L160.741 11.9657H158.79L155.876 6.07423H159.36L161.707 10.8153Z" fill="white"/>
<path d="M96.2331 26.9943V26.1498L95.2037 25.7275V26.9943H92.1288V26.1498L91.0994 25.7275V26.9943H88.0246V26.1498L86.9951 25.7275V26.9943H83.9203V26.1498L82.8909 25.7275V26.9943H79.816V26.1498L78.7866 25.7275V26.9943H75.7117V26.1498L74.6823 25.7275V26.9943H71.6075V26.1498L70.578 25.7275V26.9943H67.5032V26.1498L66.4738 25.7275V26.9943H63.3989V26.1498L62.3695 25.7275V26.9943H59.2946V26.1498L58.2652 25.7275V26.9943H55.1904V26.1498L54.1609 25.7275V26.9943H52.5414C52.035 26.9943 51.5622 27.1439 51.1666 27.3999L50.7038 26.6917C50.2411 26.8214 49.7817 27.0574 49.376 27.4065L50.4389 28.1114C50.1707 28.5104 50.0131 28.9858 50.0131 29.5011C50.0131 30.0531 50.1941 30.5584 50.4959 30.9707L49.8085 31.4661C49.9628 31.9149 50.2277 32.3571 50.5999 32.7428L51.2538 31.6523C51.6327 31.875 52.0719 32.0047 52.5414 32.0047H54.2615V32.8492L55.291 33.2714V32.0047H58.3658V32.8492L59.3952 33.2714V32.0047H62.4701V32.8492L63.4995 33.2714V32.0047H66.5744V32.8492L67.6038 33.2714V32.0047H70.6786V32.8492L71.7081 33.2714V32.0047H74.7829V32.8492L75.8123 33.2714V32.0047H78.8872V32.8492L79.9166 33.2714V32.0047H82.9915V32.8492L84.0209 33.2714V32.0047H87.0957V32.8492L88.1252 33.2714V32.0047H91.2V32.8492L92.2294 33.2714V32.0047H95.3043V32.8492L96.3337 33.2714V32.0047H97.8192V26.9909H96.2331V26.9943Z" fill="#F9C300"/>
<path d="M52.5346 28.2646C51.931 28.2646 51.4448 28.7501 51.4448 29.3452V29.6245C51.4448 30.2229 51.9344 30.705 52.5346 30.705H97.8191V28.2646H52.5346ZM52.7961 30.0966C52.4541 30.0966 52.1792 29.824 52.1792 29.4848C52.1792 29.1457 52.4541 28.8731 52.7961 28.8731C53.1382 28.8731 53.4131 29.1457 53.4131 29.4848C53.4131 29.824 53.1382 30.0966 52.7961 30.0966Z" fill="#111111"/>
<path d="M67.5063 26.9945H70.5812V25.7278L71.2854 26.017V25.8309L70.2559 25.4053V26.672H67.5063V26.9945Z" fill="white"/>
<path d="M63.4053 26.9945H66.4768V25.7278L67.1843 26.017V25.8309L66.1515 25.4053V26.672H63.4053V26.9945Z" fill="white"/>
<path d="M51.173 27.4001C51.5687 27.1441 52.0415 26.9945 52.5478 26.9945H54.1674V25.7278L54.8715 26.017V25.8275L53.8421 25.4053V26.672H52.2225C51.7497 26.672 51.3071 26.805 50.9282 27.0278L51.1697 27.3968L51.173 27.4001Z" fill="white"/>
<path d="M59.3013 26.9945H62.3728V25.7278L63.0803 26.017V25.8309L62.0509 25.4053V26.672H59.3013V26.9945Z" fill="white"/>
<path d="M50.6164 26.7255L50.385 26.373C49.9223 26.5027 49.4629 26.7388 49.0571 27.0879L49.4562 27.3539C49.8149 27.0613 50.214 26.8518 50.6164 26.7288V26.7255Z" fill="white"/>
<path d="M71.6104 26.9945H74.6852V25.7278L75.3894 26.017V25.8309L74.36 25.4053V26.672H71.6104V26.9945Z" fill="white"/>
<path d="M92.1289 26.9945H95.2038V25.7278L95.9079 26.017V25.8309L94.8785 25.4053V26.672H92.1289V26.9945Z" fill="white"/>
<path d="M75.7148 26.9945H78.7863V25.7278L79.4939 26.017V25.8309L78.4644 25.4053V26.672H75.7148V26.9945Z" fill="white"/>
<path d="M88.0244 26.9945H91.0993V25.7278L91.8034 26.017V25.8309L90.774 25.4053V26.672H88.0244V26.9945Z" fill="white"/>
<path d="M96.2329 26.9944H97.4937V26.7816V26.6719H96.2329V26.9944Z" fill="white"/>
<path d="M83.9199 26.9945H86.9948V25.7278L87.6989 26.017V25.8309L86.6695 25.4053V26.672H83.9199V26.9945Z" fill="white"/>
<path d="M79.8193 26.9945H82.8908V25.7278L83.5983 26.017V25.8309L82.5656 25.4053V26.672H79.8193V26.9945Z" fill="white"/>
<path d="M55.1968 26.9945H58.2716V25.7278L58.9758 26.017V25.8309L57.9464 25.4053V26.672H55.1968V26.9945Z" fill="white"/>
<path d="M49.815 31.4698L50.5024 30.9745C50.2006 30.5622 50.0196 30.0535 50.0196 29.5049C50.0196 28.9896 50.1771 28.5108 50.4454 28.1152L50.0732 27.8691C49.8351 28.2515 49.6943 28.7003 49.6943 29.1824C49.6943 29.7343 49.8754 30.2397 50.1772 30.652L49.4897 31.1474C49.644 31.5962 49.9089 32.0384 50.2811 32.4241L50.3046 32.3875C50.09 32.0982 49.9223 31.7857 49.815 31.4698Z" fill="white"/>
<path d="M87.0953 32.0088H86.77V32.5308L87.0953 32.6638V32.0088Z" fill="white"/>
<path d="M74.7862 32.0088H74.4609V32.5308L74.7862 32.6638V32.0088Z" fill="white"/>
<path d="M78.8869 32.0088H78.5649V32.5308L78.8869 32.6638V32.0088Z" fill="white"/>
<path d="M95.3043 32.0088H94.979V32.5308L95.3043 32.6638V32.0088Z" fill="white"/>
<path d="M91.1998 32.0088H90.8745V32.5308L91.1998 32.6638V32.0088Z" fill="white"/>
<path d="M82.9913 32.0088H82.666V32.5308L82.9913 32.6638V32.0088Z" fill="white"/>
<path d="M70.6817 32.0088H70.3564V32.5308L70.6817 32.6638V32.0088Z" fill="white"/>
<path d="M58.3721 32.0088H58.0469V32.5308L58.3721 32.6638V32.0088Z" fill="white"/>
<path d="M54.2681 32.0088H53.9429V32.5308L54.2681 32.6638V32.0088Z" fill="white"/>
<path d="M62.4733 32.0088H62.1514V32.5308L62.4733 32.6638V32.0088Z" fill="white"/>
<path d="M66.5777 32.0088H66.2524V32.5308L66.5777 32.6638V32.0088Z" fill="white"/>
</svg>
